<?xml version="1.0" encoding="UTF-8"?>
<svg id="Layer_1" data-name="Layer 1" xmlns="http://www.w3.org/2000/svg" viewBox="0 0 521.92 238.6">
  <defs>
    <style>
      .cls-1 {
        fill: #231f20;
      }

      .cls-2 {
        fill: #231f20;
      }

      .cls-3 {
        isolation: isolate;
      }
    </style>
  </defs>
  <g class="cls-3">
    <path class="cls-2" d="M51.47,146.42h6.35c5.83,0,8.34-.93,8.34-7.94V59.31h-8.74c-18.8,0-20.12,10.86-22.11,32.83h-1.32l1.85-34.55h68.05l1.46,34.55h-1.32c-1.46-21.71-3.31-32.83-22.11-32.83h-8.74v79.17c0,6.88,2.25,7.94,8.34,7.94h6.09v1.72h-36.14v-1.72Z"/>
    <path class="cls-2" d="M110.38,146.42h4.37c6.09,0,8.21-1.32,8.21-8.08v-70.96c0-6.88-2.12-8.08-8.21-8.08h-4.37v-1.72h64.47l1.32,31.77h-1.32c-1.85-23.7-4.24-30.05-25.42-30.05h-10.86c-6.09,0-8.6,1.19-8.6,7.94v32.96h9.8c12.84,0,14.83-8.08,14.96-18.8h1.32v40.51h-1.32c-.13-10.99-1.99-19.99-14.96-19.99h-9.8v36.54c0,6.62,2.52,7.94,8.6,7.94h12.44c20.25,0,24.49-10.33,26.08-32.83h1.46l-2.25,34.55h-65.93v-1.72Z"/>
    <path class="cls-2" d="M191.92,113.06h1.85c3.18,26.21,17.47,35.35,33.63,35.35,11.12,0,19.73-7.68,19.73-20.12,0-13.24-15.89-18.8-26.08-22.24-10.19-3.44-28.33-6.35-28.33-26.34,0-12.44,9.4-23.43,23.17-23.43,7.81,0,11.78,2.12,17.61,6.49,1.72,1.32,3.04,2.78,5.16,2.78s3.71-2.25,5.43-9h1.59l.93,35.61h-1.85c-5.16-26.08-17.48-34.68-28.86-34.68s-18.67,9.66-18.67,19.86c0,9.4,4.5,15.75,25.42,21.71,17.34,5.03,27.93,10.86,27.93,26.48,0,14.17-10.19,24.09-23.17,24.09-14.03,0-18.4-3.57-23.43-6.49-1.32-.79-3.31-1.99-5.16-1.99-2.12,0-3.31,3.31-4.37,8.47h-1.59l-.93-36.54Z"/>
    <path class="cls-2" d="M261.02,113.06h1.85c3.18,26.21,17.47,35.35,33.62,35.35,11.12,0,19.73-7.68,19.73-20.12,0-13.24-15.89-18.8-26.08-22.24-10.19-3.44-28.33-6.35-28.33-26.34,0-12.44,9.4-23.43,23.17-23.43,7.81,0,11.78,2.12,17.61,6.49,1.72,1.32,3.04,2.78,5.16,2.78s3.71-2.25,5.43-9h1.59l.93,35.61h-1.85c-5.16-26.08-17.47-34.68-28.86-34.68s-18.67,9.66-18.67,19.86c0,9.4,4.5,15.75,25.42,21.71,17.34,5.03,27.93,10.86,27.93,26.48,0,14.17-10.19,24.09-23.17,24.09-14.03,0-18.4-3.57-23.43-6.49-1.32-.79-3.31-1.99-5.16-1.99-2.12,0-3.31,3.31-4.37,8.47h-1.59l-.93-36.54Z"/>
    <path class="cls-2" d="M337.14,130.8l27.01-74.93h1.85l28.86,81.15c2.78,7.94,6.49,9.27,11.91,9.4v1.72h-30.58v-1.72h3.71c5.16,0,8.34-2.12,8.34-4.77,0-2.38-1.19-6.35-3.04-11.65l-3.84-11.12h-37.33l-2.25,6.88c-1.85,5.83-3.31,10.06-3.31,13.77,0,4.77,2.78,6.88,7.55,6.88h2.65v1.72h-25.02v-1.72c7.15-.4,9.93-5.43,13.5-15.62ZM380.83,117.16l-18.14-51.5-18.14,51.5h36.27Z"/>
    <path class="cls-2" d="M422.79,68.44v62.22c0,13.11,3.18,15.75,13.24,15.75h.53v1.72h-28.99v-1.72h1.32c8.74,0,11.65-2.52,11.65-15.75v-64.87c-4.63-5.29-6.75-6.49-13.5-6.49v-1.72h16.68l52.29,80.09v-62.49c0-12.71-3.04-15.89-13.11-15.89h-.53v-1.72h28.86v1.72h-1.06c-8.74,0-11.78,3.71-11.78,15.89v75.06h-2.12l-53.48-81.81Z"/>
  </g>
  <g class="cls-3">
    <path class="cls-2" d="M168.3,235.03c-1.28,0-2.66,1.19-3.39,3.21h-.73v-15.67h.64c1.37,9.44,7.51,14.85,14.75,14.85,6.78,0,10.08-4.03,10.08-8.25s-3.48-5.77-12.37-8.8c-8.06-2.75-12.65-4.31-12.65-11.27s4.77-10.45,11-10.45c5.22,0,6.78,2.47,9.71,2.47,1.28,0,2.66-.73,3.3-2.29h.73v14.39h-.64c-1.37-8.06-5.32-13.65-13.56-13.65-4.31,0-8.61,2.93-8.61,7.33s2.84,5.41,11.91,8.43c8.89,2.93,13.11,5.13,13.11,11.82s-4.12,11.18-12.28,11.18c-5.41,0-9.07-3.3-11-3.3Z"/>
    <path class="cls-2" d="M201.66,227.05v-26.39h-6.23v-1.1c5.77-.92,9.26-4.77,9.62-17.23h.92v17.14h13.01v1.19h-13.01v27.4c0,6.23,1.83,9.26,6.69,9.16,4.67-.09,7.79-5.32,7.79-12.92h1.19c0,8.43-3.76,14.3-9.62,14.3-6.6,0-10.36-3.76-10.36-11.55Z"/>
    <path class="cls-2" d="M227.6,225.96v-20.44c0-4.4-.92-5.22-4.95-5.22h-1.01v-.82l10.26-.55v28.87c0,6.05,2.84,8.52,7.79,8.52,6.51,0,12.74-7.15,12.74-14.85v-15.76c0-4.67-.92-5.41-4.95-5.41h-2.57v-.82l11.82-.55v31.89c0,4.49,1.01,5.41,5.04,5.41h.83v.73l-10.08,1.37.46-11.73h-.18c-2.66,7.06-7.97,11.73-14.21,11.73-6.78,0-11-3.57-11-12.37Z"/>
    <path class="cls-2" d="M294.69,227.33h-.28c-2.11,6.14-6.32,11-12.65,11-8.8,0-16.13-8.06-16.13-19.7s7.88-20.07,16.59-20.07c5.13,0,9.81,3.39,12.37,10.08h.37c-.18-2.2,0-8.98,0-13.56v-14.3c0-4.31-1.01-5.22-5.04-5.22h-2.38v-.82l11.64-1.47v57.74c0,4.49.28,5.04,3.21,5.22l2.47.18v.82c-3.57.37-10.45,1.38-10.45,1.38l.28-11.27ZM294.69,218.62c0-15.4-8.34-19.15-12.56-19.15-8.06,0-11.36,9.62-11.36,19.15,0,10.26,3.3,18.7,11.18,18.7s12.74-9.53,12.74-18.7Z"/>
    <path class="cls-2" d="M306.78,236.49h.92c4.03,0,4.95-.73,4.95-5.04v-25.84c0-4.67-.92-5.32-4.95-5.32h-.92v-.82l10.17-.64v32.62c0,4.4.92,5.04,4.95,5.04h.92v.92h-16.04v-.92ZM309.81,182.97c0-2.2,1.74-3.94,3.94-3.94s3.94,1.74,3.94,3.94-1.83,3.94-3.94,3.94-3.94-1.74-3.94-3.94Z"/>
    <path class="cls-2" d="M325.94,218.35c0-11.82,8.43-20.16,16.95-20.16s16.86,8.16,16.86,19.98-7.88,20.44-16.77,20.44-17.05-8.98-17.05-20.25ZM354.62,218.44c0-10.36-3.3-19.43-11.73-19.43s-11.64,8.89-11.64,19.25,3.12,19.52,11.73,19.52,11.64-9.16,11.64-19.34Z"/>
  </g>
  <polygon class="cls-1" points="521.92 215.89 521.92 216.89 521.13 216.89 521.13 217.62 520.13 217.62 520.13 216.89 383.16 216.89 383.16 215.89 520.13 215.89 520.13 1.73 515.35 1.73 1.79 2.05 1.79 216.16 138.76 216.16 138.76 217.16 6.57 217.16 6.57 217.18 1.79 217.18 1.79 217.91 .79 217.91 .79 217.18 .24 217.18 .24 217.16 0 217.16 0 216.16 .79 216.16 .79 2.05 .23 2.05 .23 1.05 .79 1.05 .79 .26 1.79 .26 1.79 1.05 515.35 .73 520.13 .73 520.13 0 521.13 0 521.13 .73 521.68 .73 521.68 1.73 521.13 1.73 521.13 215.89 521.92 215.89"/>
</svg>